<svg xmlns="http://www.w3.org/2000/svg" version="1.1" xmlns:xlink="http://www.w3.org/1999/xlink" xmlns:svgjs="http://svgjs.dev/svgjs" width="2000" height="1500" viewBox="0 0 2000 1500"><rect width="2000" height="1500" fill="#000319"></rect><g transform="matrix(0.75,0,0,0.75,249.090909090909,349.391126194875)"><svg viewBox="0 0 396 211" data-background-color="#000319" preserveAspectRatio="xMidYMid meet" height="1065" width="2000" xmlns="http://www.w3.org/2000/svg" xmlns:xlink="http://www.w3.org/1999/xlink"><g id="tight-bounds" transform="matrix(1,0,0,1,0.2400000000000091,0.3259435028248703)"><svg viewBox="0 0 395.52 210.34811299435026" height="210.34811299435026" width="395.52"><g><svg viewBox="0 0 395.52 210.34811299435026" height="210.34811299435026" width="395.52"><g><svg viewBox="0 0 395.52 210.34811299435026" height="210.34811299435026" width="395.52"><g id="textblocktransform"><svg viewBox="0 0 395.52 210.34811299435026" height="210.34811299435026" width="395.52" id="textblock"><g><svg viewBox="0 0 395.52 210.34811299435026" height="210.34811299435026" width="395.52"><g transform="matrix(1,0,0,1,0,0)"><svg width="395.52" viewBox="2.47 -34.23 64.81 34.47" height="210.34811299435026" data-palette-color="#ce5674"><path d="M2.47-32.84L2.47-32.84 2.47-33.45Q2.47-34.23 10.25-34.23L10.25-34.23 11.28-34.23Q14.26-34.23 14.97-33.54L14.97-33.54 15.36-32.96Q15.36-32.13 14.32-31.09 13.28-30.05 12.84-28.37 12.4-26.68 12.4-22.8 12.4-18.92 12.96-18.92L12.96-18.92Q14.14-18.92 19.82-24.98L19.82-24.98Q23.32-28.69 23.32-29.91L23.32-29.91Q23.32-30.35 22.9-31.3 22.49-32.25 22.49-32.71L22.49-32.71Q22.49-33.64 23.68-33.96L23.68-33.96Q24.41-34.16 27.55-34.16 30.69-34.16 31.97-33.85 33.25-33.54 33.25-32.76L33.25-32.76 28.44-28.59Q27.39-27.69 22.22-22.17L22.22-22.17Q20.39-20.21 20.39-18.87L20.39-18.87Q20.39-18.7 25.12-12.52 29.86-6.35 31.01-5.25L31.01-5.25Q34.84-1.54 34.84-1.46L34.84-1.46Q34.84-0.51 33.24-0.23 31.64 0.05 28.27 0.05L28.27 0.05 27.2 0.05Q25.37 0.05 23.97-1.66L23.97-1.66Q23.49-2.25 22-5.42 20.51-8.59 18.37-11.47 16.24-14.36 14.53-14.36L14.53-14.36Q13.67-14.36 13.1-13.27 12.52-12.18 12.52-9.77 12.52-7.35 14.33-3L14.33-3Q14.79-1.9 14.79-1.17L14.79-1.17 14.55-0.88Q13.38-0.02 7.08-0.02L7.08-0.02Q4.88-0.02 3.98-0.24L3.98-0.24Q2.56-0.59 2.56-1.49L2.56-1.49Q2.56-1.64 3.82-3.15 5.08-4.66 5.35-6.09 5.62-7.52 5.62-17.02 5.62-26.51 5.31-27.81 5-29.1 3.74-30.93 2.47-32.76 2.47-32.84ZM49.12-20.9L49.14-20.7 49.19-19.85Q49.19-19.09 50.27-19.09L50.27-19.09 51.39-19.09 51.58-19.12 52.9-19.17Q53.1-19.19 53.29-19.19L53.29-19.19Q55.17-19.19 56.74-20.59 58.3-22 58.3-24.15L58.3-24.15 58.35-24.54 58.35-25.32Q58.35-27.54 56.77-28.96 55.2-30.37 52.05-30.37L52.05-30.37 51.1-30.37Q49.48-30.37 49.22-29.59L49.22-29.59Q49.12-29.3 49.12-25.29L49.12-25.29 49.12-20.9ZM49.09-5.96L49.12-5.76 49.17-4.76Q49.17-3.32 51.78-3.32L51.78-3.32 52-3.3 52.19-3.27 53.07-3.25 54.17-3.25Q56.59-3.25 58.29-4.79 59.98-6.32 59.98-8.96L59.98-8.96 59.98-9.89Q59.98-12.35 58.23-14.11 56.47-15.87 52.85-15.87L52.85-15.87 51.34-15.87Q49.48-15.87 49.3-15.44 49.12-15.01 49.12-9.86L49.12-9.86 49.09-9.45 49.09-8.84 49.07-8.64 49.07-8.23 49.05-7.4 49.05-7.2 49.07-7.01 49.07-6.59 49.09-6.4Q49.09-6.18 49.09-5.96L49.09-5.96ZM50.46-33.81L50.46-33.81 53.1-33.81Q59.15-33.81 62.23-31.62 65.31-29.42 65.31-25.71L65.31-25.71Q65.31-23.58 64.33-21.8 63.35-20.02 61.97-19.1 60.59-18.19 60.59-18.07 60.59-17.94 62.49-16.99 64.38-16.04 65.5-14.72L65.5-14.72Q67.28-12.6 67.28-10.11L67.28-10.11 67.28-9.47Q67.28-2.2 58.57-0.27L58.57-0.27Q56.25 0.24 52.02 0.24L52.02 0.24 50.73 0.24 50.07 0.22Q49.41 0.2 48.78 0.2L48.78 0.2 47.48 0.15Q46.85 0.12 46.19 0.12L46.19 0.12 43.04 0.05Q40.38 0.05 39.89-0.05L39.89-0.05Q38.62-0.29 38.62-1.25L38.62-1.25Q38.62-1.93 40.23-3.27L40.23-3.27Q41.31-4.17 41.66-6.05 42.01-7.93 42.01-17.2 42.01-26.46 41.68-27.83 41.35-29.2 40-30.27 38.64-31.35 38.64-32.19 38.64-33.03 39.61-33.33 40.57-33.62 44.77-33.62L44.77-33.62 47.31-33.72Q49.85-33.81 50.46-33.81Z" opacity="1" transform="matrix(1,0,0,1,0,0)" fill="#ce5674" class="wordmark-text-0" data-fill-palette-color="primary" id="text-0"></path></svg></g></svg></g></svg></g></svg></g><g></g></svg></g><defs></defs></svg><rect width="395.52" height="210.34811299435026" fill="none" stroke="none" visibility="hidden"></rect></g></svg></g></svg>